# Blender v2.79 (sub 0) OBJ File: ''
# www.blender.org
mtllib control panel.mtl
o Cube
v 0.568525 -2.153304 -0.850384
v 0.568525 -2.153304 0.850384
v -0.568525 -2.153304 0.850383
v -0.568524 -2.153304 -0.850384
v 0.568525 2.153304 -0.850383
v 0.568524 2.153304 0.850384
v -0.568525 2.153304 0.850383
v -0.568525 2.153304 -0.850384
vt 0.000000 0.000000
vt 1.000000 0.000000
vt 1.000000 1.000000
vt 0.000000 1.000000
vt 0.000000 0.000000
vt 1.000000 0.000000
vt 1.000000 1.000000
vt 0.000000 1.000000
vt 1.000000 0.000000
vt 1.000000 1.000000
vt 0.000000 1.000000
vt 0.000000 0.000000
vt 1.000000 0.000000
vt 0.000000 1.000000
vt 0.000000 0.000000
vt 1.000000 0.000000
vt 1.000000 1.000000
vt 1.000000 0.000000
vt 1.000000 1.000000
vt 0.000000 1.000000
vn 0.0000 -1.0000 0.0000
vn 0.0000 1.0000 -0.0000
vn 1.0000 0.0000 0.0000
vn -0.0000 -0.0000 1.0000
vn -1.0000 -0.0000 -0.0000
vn 0.0000 0.0000 -1.0000
usemtl Material
s off
f 1/1/1 2/2/1 3/3/1 4/4/1
f 5/5/2 8/6/2 7/7/2 6/8/2
f 1/1/3 5/9/3 6/10/3 2/11/3
f 2/12/4 6/13/4 7/7/4 3/14/4
f 3/15/5 7/16/5 8/17/5 4/4/5
f 5/5/6 1/18/6 4/19/6 8/20/6
o Cube.001
v -0.538950 -0.267842 -0.850384
v -0.538950 -0.267842 0.850384
v -1.675999 -0.267842 0.850383
v -1.675999 -0.267842 -0.850384
v -0.538950 -2.161579 -0.850383
v -0.538950 -2.161579 0.850384
v -1.676000 -2.161579 0.850383
v -1.675999 -2.161579 -0.850384
vt 0.000000 0.000000
vt 0.000000 1.000000
vt 1.000000 1.000000
vt 1.000000 0.000000
vt 0.000000 0.000000
vt 0.000000 1.000000
vt 1.000000 1.000000
vt 1.000000 0.000000
vt 0.000000 1.000000
vt 1.000000 1.000000
vt 1.000000 0.000000
vt 0.000000 0.000000
vt 0.000000 1.000000
vt 1.000000 0.000000
vt 0.000000 0.000000
vt 1.000000 1.000000
vt 1.000000 0.000000
vt 0.000000 1.000000
vt 1.000000 1.000000
vt 1.000000 0.000000
vn 0.0000 1.0000 0.0000
vn 0.0000 -1.0000 -0.0000
vn 1.0000 -0.0000 0.0000
vn -0.0000 0.0000 1.0000
vn -1.0000 0.0000 -0.0000
vn 0.0000 -0.0000 -1.0000
usemtl Material.001
s off
f 9/21/7 12/22/7 11/23/7 10/24/7
f 13/25/8 14/26/8 15/27/8 16/28/8
f 9/21/9 10/29/9 14/30/9 13/31/9
f 10/32/10 11/33/10 15/27/10 14/34/10
f 11/35/11 12/22/11 16/36/11 15/37/11
f 13/25/12 16/38/12 12/39/12 9/40/12
o Cube.002
v -0.521464 0.832273 -0.500874
v -0.521464 0.200009 -0.507169
v -0.576227 0.200009 -0.507169
v -0.576227 0.832273 -0.500874
v -0.521464 0.822236 0.507169
v -0.521464 0.189972 0.500874
v -0.576227 0.189972 0.500874
v -0.576227 0.822236 0.507169
vt 0.000000 0.000000
vt 1.000000 0.000000
vt 1.000000 1.000000
vt 0.000000 1.000000
vt 0.000000 0.000000
vt 1.000000 0.000000
vt 1.000000 1.000000
vt 0.000000 1.000000
vt 1.000000 0.000000
vt 1.000000 1.000000
vt 0.000000 1.000000
vt 0.000000 0.000000
vt 1.000000 0.000000
vt 0.000000 1.000000
vt 0.000000 0.000000
vt 1.000000 0.000000
vt 1.000000 1.000000
vt 1.000000 0.000000
vt 1.000000 1.000000
vt 0.000000 1.000000
vn 0.0000 0.0100 -1.0000
vn 0.0000 -0.0100 1.0000
vn 1.0000 0.0000 0.0000
vn -0.0000 -1.0000 -0.0100
vn -1.0000 0.0000 0.0000
vn 0.0000 1.0000 0.0100
usemtl Material.002
s off
f 17/41/13 18/42/13 19/43/13 20/44/13
f 21/45/14 24/46/14 23/47/14 22/48/14
f 17/41/15 21/49/15 22/50/15 18/51/15
f 18/52/16 22/53/16 23/47/16 19/54/16
f 19/55/17 23/56/17 24/57/17 20/44/17
f 21/45/18 17/58/18 20/59/18 24/60/18
o Cube.003
v -1.432594 -0.279589 -0.667007
v -0.947807 -0.279589 -0.666281
v -0.949803 -0.279589 0.667007
v -1.434590 -0.279589 0.666281
v -1.432594 -0.263434 -0.667007
v -0.947807 -0.263434 -0.666281
v -0.949803 -0.263434 0.667007
v -1.434590 -0.263434 0.666281
vt 0.000000 0.000000
vt 1.000000 0.000000
vt 1.000000 1.000000
vt 0.000000 1.000000
vt 0.000000 0.000000
vt 1.000000 0.000000
vt 1.000000 1.000000
vt 0.000000 1.000000
vt 1.000000 0.000000
vt 1.000000 1.000000
vt 0.000000 1.000000
vt 0.000000 0.000000
vt 1.000000 0.000000
vt 0.000000 1.000000
vt 0.000000 0.000000
vt 1.000000 0.000000
vt 1.000000 1.000000
vt 1.000000 0.000000
vt 1.000000 1.000000
vt 0.000000 1.000000
vn 0.0000 -1.0000 -0.0000
vn 0.0000 1.0000 0.0000
vn 0.0015 0.0000 -1.0000
vn 1.0000 -0.0000 0.0015
vn -0.0015 -0.0000 1.0000
vn -1.0000 0.0000 -0.0015
usemtl Material.003
s off
f 25/61/19 26/62/19 27/63/19 28/64/19
f 29/65/20 32/66/20 31/67/20 30/68/20
f 25/61/21 29/69/21 30/70/21 26/71/21
f 26/72/22 30/73/22 31/67/22 27/74/22
f 27/75/23 31/76/23 32/77/23 28/64/23
f 29/65/24 25/78/24 28/79/24 32/80/24
