# This file is brought to you by Roblox Corporation
# Generated by Roblox Studio

mtllib SCP Monitor.mtl

g Part1

v 54.1659 4.5998 33.4989 
v 51.1659 4.59989 33.4865 
v 54.1659 4.3998 33.4988 
v 51.1659 4.39989 33.4865 
v 51.1668 4.59996 33.2865 
v 51.1659 4.59989 33.4865 
v 54.1667 4.59987 33.2989 
v 54.1659 4.5998 33.4989 
v 51.1659 4.59989 33.4865 
v 51.1668 4.59996 33.2865 
v 51.1659 4.39989 33.4865 
v 51.1668 4.39996 33.2865 
v 51.1668 4.59996 33.2865 
v 54.1667 4.59987 33.2989 
v 51.1668 4.39996 33.2865 
v 54.1667 4.39987 33.2988 
v 54.1667 4.39987 33.2988 
v 54.1659 4.3998 33.4988 
v 51.1668 4.39996 33.2865 
v 51.1659 4.39989 33.4865 
v 54.1667 4.59987 33.2989 
v 54.1659 4.5998 33.4989 
v 54.1667 4.39987 33.2988 
v 54.1659 4.3998 33.4988 

vn -0.00787402 0 1 
vn -0.00787402 0 1 
vn -0.00787402 0 1 
vn -0.00787402 0 1 
vn 0 1 0 
vn 0 1 0 
vn 0 1 0 
vn 0 1 0 
vn -1 0 -0.00787402 
vn -1 0 -0.00787402 
vn -1 0 -0.00787402 
vn -1 0 -0.00787402 
vn 0.00787402 0 -1 
vn 0.00787402 0 -1 
vn 0.00787402 0 -1 
vn 0.00787402 0 -1 
vn 0 -1 0 
vn 0 -1 0 
vn 0 -1 0 
vn 0 -1 0 
vn 1 0 0.00787402 
vn 1 0 0.00787402 
vn 1 0 0.00787402 
vn 1 0 0.00787402 

vt 2.23731 1.25864 
vt -0.762695 1.25864 
vt 2.23731 1.05864 
vt -0.762695 1.05864 
vt -0.562695 1.25864 
vt -0.762695 1.25864 
vt -0.562695 -1.74136 
vt -0.762695 -1.74136 
vt -0.562695 1.25864 
vt -0.762695 1.25864 
vt -0.562695 1.05864 
vt -0.762695 1.05864 
vt 2.23731 1.25864 
vt -0.762695 1.25864 
vt 2.23731 1.05864 
vt -0.762695 1.05864 
vt -0.562695 1.25864 
vt -0.762695 1.25864 
vt -0.562695 -1.74136 
vt -0.762695 -1.74136 
vt -0.562695 1.25864 
vt -0.762695 1.25864 
vt -0.562695 1.05864 
vt -0.762695 1.05864 

usemtl Part1Mtl

f 1/1/1 2/2/2 3/3/3 
f 3/3/3 2/2/2 4/4/4 
f 5/5/5 6/6/6 7/7/7 
f 7/7/7 6/6/6 8/8/8 
f 9/9/9 10/10/10 11/11/11 
f 11/11/11 10/10/10 12/12/12 
f 13/13/13 14/14/14 15/15/15 
f 15/15/15 14/14/14 16/16/16 
f 17/17/17 18/18/18 19/19/19 
f 19/19/19 18/18/18 20/20/20 
f 21/21/21 22/22/22 23/23/23 
f 23/23/23 22/22/22 24/24/24 

g Part2

v 51.1658 4.60007 33.4866 
v 50.9658 4.60007 33.4858 
v 51.1657 2.00007 33.4857 
v 50.9658 2.00007 33.4848 
v 50.9667 4.60014 33.2858 
v 50.9658 4.60007 33.4858 
v 51.1666 4.60014 33.2866 
v 51.1658 4.60007 33.4866 
v 50.9658 4.60007 33.4858 
v 50.9667 4.60014 33.2858 
v 50.9658 2.00007 33.4848 
v 50.9666 2.00014 33.2849 
v 50.9667 4.60014 33.2858 
v 51.1666 4.60014 33.2866 
v 50.9666 2.00014 33.2849 
v 51.1666 2.00013 33.2857 
v 51.1666 2.00013 33.2857 
v 51.1657 2.00007 33.4857 
v 50.9666 2.00014 33.2849 
v 50.9658 2.00007 33.4848 
v 51.1666 4.60014 33.2866 
v 51.1658 4.60007 33.4866 
v 51.1666 2.00013 33.2857 
v 51.1657 2.00007 33.4857 

vn -0.00787402 0 1 
vn -0.00787402 0 1 
vn -0.00787402 0 1 
vn -0.00787402 0 1 
vn 0 1 0 
vn 0 1 0 
vn 0 1 0 
vn 0 1 0 
vn -1 0 -0.00787402 
vn -1 0 -0.00787402 
vn -1 0 -0.00787402 
vn -1 0 -0.00787402 
vn 0.00787402 0 -1 
vn 0.00787402 0 -1 
vn 0.00787402 0 -1 
vn 0.00787402 0 -1 
vn 0 -1 0 
vn 0 -1 0 
vn 0 -1 0 
vn 0 -1 0 
vn 1 0 0.00787402 
vn 1 0 0.00787402 
vn 1 0 0.00787402 
vn 1 0 0.00787402 

vt -1.15435 -0.409229 
vt -1.35435 -0.409229 
vt -1.15435 -3.00923 
vt -1.35435 -3.00923 
vt -1.15435 -0.409229 
vt -1.35435 -0.409229 
vt -1.15435 -0.609229 
vt -1.35435 -0.609229 
vt -1.15435 -0.409229 
vt -1.35435 -0.409229 
vt -1.15435 -3.00923 
vt -1.35435 -3.00923 
vt -1.15435 -0.409229 
vt -1.35435 -0.409229 
vt -1.15435 -3.00923 
vt -1.35435 -3.00923 
vt -1.15435 -0.409229 
vt -1.35435 -0.409229 
vt -1.15435 -0.609229 
vt -1.35435 -0.609229 
vt -1.15435 -0.409229 
vt -1.35435 -0.409229 
vt -1.15435 -3.00923 
vt -1.35435 -3.00923 

usemtl Part1Mtl

f 25/25/25 26/26/26 27/27/27 
f 27/27/27 26/26/26 28/28/28 
f 29/29/29 30/30/30 31/31/31 
f 31/31/31 30/30/30 32/32/32 
f 33/33/33 34/34/34 35/35/35 
f 35/35/35 34/34/34 36/36/36 
f 37/37/37 38/38/38 39/39/39 
f 39/39/39 38/38/38 40/40/40 
f 41/41/41 42/42/42 43/43/43 
f 43/43/43 42/42/42 44/44/44 
f 45/45/45 46/46/46 47/47/47 
f 47/47/47 46/46/46 48/48/48 

g Button1

v 54.1658 4.40002 33.4988 
v 51.1658 4.40012 33.4864 
v 54.1657 2.20002 33.498 
v 51.1657 2.20011 33.4857 
v 51.1666 4.40019 33.2864 
v 51.1658 4.40012 33.4864 
v 54.1666 4.40009 33.2988 
v 54.1658 4.40002 33.4988 
v 51.1658 4.40012 33.4864 
v 51.1666 4.40019 33.2864 
v 51.1657 2.20011 33.4857 
v 51.1666 2.20018 33.2857 
v 51.1666 4.40019 33.2864 
v 54.1666 4.40009 33.2988 
v 51.1666 2.20018 33.2857 
v 54.1665 2.20009 33.298 
v 54.1665 2.20009 33.298 
v 54.1657 2.20002 33.498 
v 51.1666 2.20018 33.2857 
v 51.1657 2.20011 33.4857 
v 54.1666 4.40009 33.2988 
v 54.1658 4.40002 33.4988 
v 54.1665 2.20009 33.298 
v 54.1657 2.20002 33.498 

vn -0.00787402 0 1 
vn -0.00787402 0 1 
vn -0.00787402 0 1 
vn -0.00787402 0 1 
vn 0 1 0 
vn 0 1 0 
vn 0 1 0 
vn 0 1 0 
vn -1 0 -0.00787402 
vn -1 0 -0.00787402 
vn -1 0 -0.00787402 
vn -1 0 -0.00787402 
vn 0.00787402 0 -1 
vn 0.00787402 0 -1 
vn 0.00787402 0 -1 
vn 0.00787402 0 -1 
vn 0 -1 0 
vn 0 -1 0 
vn 0 -1 0 
vn 0 -1 0 
vn 1 0 0.00787402 
vn 1 0 0.00787402 
vn 1 0 0.00787402 
vn 1 0 0.00787402 

vt 5.24777 -1.53661 
vt 2.24777 -1.53661 
vt 5.24777 -3.73661 
vt 2.24777 -3.73661 
vt 2.44777 -1.53661 
vt 2.24777 -1.53661 
vt 2.44777 -4.53661 
vt 2.24777 -4.53661 
vt 2.44777 -1.53661 
vt 2.24777 -1.53661 
vt 2.44777 -3.73661 
vt 2.24777 -3.73661 
vt 5.24777 -1.53661 
vt 2.24777 -1.53661 
vt 5.24777 -3.73661 
vt 2.24777 -3.73661 
vt 2.44777 -1.53661 
vt 2.24777 -1.53661 
vt 2.44777 -4.53661 
vt 2.24777 -4.53661 
vt 2.44777 -1.53661 
vt 2.24777 -1.53661 
vt 2.44777 -3.73661 
vt 2.24777 -3.73661 

usemtl Button1Mtl

f 49/49/49 50/50/50 51/51/51 
f 51/51/51 50/50/50 52/52/52 
f 53/53/53 54/54/54 55/55/55 
f 55/55/55 54/54/54 56/56/56 
f 57/57/57 58/58/58 59/59/59 
f 59/59/59 58/58/58 60/60/60 
f 61/61/61 62/62/62 63/63/63 
f 63/63/63 62/62/62 64/64/64 
f 65/65/65 66/66/66 67/67/67 
f 67/67/67 66/66/66 68/68/68 
f 69/69/69 70/70/70 71/71/71 
f 71/71/71 70/70/70 72/72/72 

g Button2

v 51.1668 4.40019 33.2664 
v 54.1668 4.40009 33.2788 
v 51.1667 2.20018 33.2657 
v 54.1667 2.20009 33.278 

vn 0.00787402 0 -1 
vn 0.00787402 0 -1 
vn 0.00787402 0 -1 
vn 0.00787402 0 -1 

vt 1 1 
vt 0 1 
vt 1 0 
vt 0 0 

usemtl Button2Mtl

f 73/73/73 74/74/74 75/75/75 
f 75/75/75 74/74/74 76/76/76 

g Part3

v 54.3658 4.60015 33.4997 
v 54.1658 4.60016 33.4988 
v 54.3658 2.00015 33.4988 
v 54.1658 2.00015 33.4979 
v 54.1667 4.60022 33.2988 
v 54.1658 4.60016 33.4988 
v 54.3667 4.60022 33.2997 
v 54.3658 4.60015 33.4997 
v 54.1658 4.60016 33.4988 
v 54.1667 4.60022 33.2988 
v 54.1658 2.00015 33.4979 
v 54.1666 2.00022 33.2979 
v 54.1667 4.60022 33.2988 
v 54.3667 4.60022 33.2997 
v 54.1666 2.00022 33.2979 
v 54.3666 2.00022 33.2988 
v 54.3666 2.00022 33.2988 
v 54.3658 2.00015 33.4988 
v 54.1666 2.00022 33.2979 
v 54.1658 2.00015 33.4979 
v 54.3667 4.60022 33.2997 
v 54.3658 4.60015 33.4997 
v 54.3666 2.00022 33.2988 
v 54.3658 2.00015 33.4988 

vn -0.00787402 0 1 
vn -0.00787402 0 1 
vn -0.00787402 0 1 
vn -0.00787402 0 1 
vn 0 1 0 
vn 0 1 0 
vn 0 1 0 
vn 0 1 0 
vn -1 0 -0.00787402 
vn -1 0 -0.00787402 
vn -1 0 -0.00787402 
vn -1 0 -0.00787402 
vn 0.00787402 0 -1 
vn 0.00787402 0 -1 
vn 0.00787402 0 -1 
vn 0.00787402 0 -1 
vn 0 -1 0 
vn 0 -1 0 
vn 0 -1 0 
vn 0 -1 0 
vn 1 0 0.00787402 
vn 1 0 0.00787402 
vn 1 0 0.00787402 
vn 1 0 0.00787402 

vt 1.69124 0.296284 
vt 1.49124 0.296284 
vt 1.69124 -2.30372 
vt 1.49124 -2.30372 
vt 1.69124 0.296284 
vt 1.49124 0.296284 
vt 1.69124 0.096284 
vt 1.49124 0.096284 
vt 1.69124 0.296284 
vt 1.49124 0.296284 
vt 1.69124 -2.30372 
vt 1.49124 -2.30372 
vt 1.69124 0.296284 
vt 1.49124 0.296284 
vt 1.69124 -2.30372 
vt 1.49124 -2.30372 
vt 1.69124 0.296284 
vt 1.49124 0.296284 
vt 1.69124 0.096284 
vt 1.49124 0.096284 
vt 1.69124 0.296284 
vt 1.49124 0.296284 
vt 1.69124 -2.30372 
vt 1.49124 -2.30372 

usemtl Part1Mtl

f 77/77/77 78/78/78 79/79/79 
f 79/79/79 78/78/78 80/80/80 
f 81/81/81 82/82/82 83/83/83 
f 83/83/83 82/82/82 84/84/84 
f 85/85/85 86/86/86 87/87/87 
f 87/87/87 86/86/86 88/88/88 
f 89/89/89 90/90/90 91/91/91 
f 91/91/91 90/90/90 92/92/92 
f 93/93/93 94/94/94 95/95/95 
f 95/95/95 94/94/94 96/96/96 
f 97/97/97 98/98/98 99/99/99 
f 99/99/99 98/98/98 100/100/100 

g Part4

v 54.1657 2.2 33.4979 
v 51.1658 2.20009 33.4855 
v 54.1657 2 33.4978 
v 51.1657 2.00009 33.4855 
v 51.1666 2.20016 33.2855 
v 51.1658 2.20009 33.4855 
v 54.1666 2.20007 33.2979 
v 54.1657 2.2 33.4979 
v 51.1658 2.20009 33.4855 
v 51.1666 2.20016 33.2855 
v 51.1657 2.00009 33.4855 
v 51.1666 2.00016 33.2855 
v 51.1666 2.20016 33.2855 
v 54.1666 2.20007 33.2979 
v 51.1666 2.00016 33.2855 
v 54.1665 2.00007 33.2978 
v 54.1665 2.00007 33.2978 
v 54.1657 2 33.4978 
v 51.1666 2.00016 33.2855 
v 51.1657 2.00009 33.4855 
v 54.1666 2.20007 33.2979 
v 54.1657 2.2 33.4979 
v 54.1665 2.00007 33.2978 
v 54.1657 2 33.4978 

vn -0.00787402 0 1 
vn -0.00787402 0 1 
vn -0.00787402 0 1 
vn -0.00787402 0 1 
vn 0 1 0 
vn 0 1 0 
vn 0 1 0 
vn 0 1 0 
vn -1 0 -0.00787402 
vn -1 0 -0.00787402 
vn -1 0 -0.00787402 
vn -1 0 -0.00787402 
vn 0.00787402 0 -1 
vn 0.00787402 0 -1 
vn 0.00787402 0 -1 
vn 0.00787402 0 -1 
vn 0 -1 0 
vn 0 -1 0 
vn 0 -1 0 
vn 0 -1 0 
vn 1 0 0.00787402 
vn 1 0 0.00787402 
vn 1 0 0.00787402 
vn 1 0 0.00787402 

vt 2.54958 1.93355 
vt -0.450418 1.93355 
vt 2.54958 1.73355 
vt -0.450418 1.73355 
vt -0.250418 1.93355 
vt -0.450418 1.93355 
vt -0.250418 -1.06645 
vt -0.450418 -1.06645 
vt -0.250418 1.93355 
vt -0.450418 1.93355 
vt -0.250418 1.73355 
vt -0.450418 1.73355 
vt 2.54958 1.93355 
vt -0.450418 1.93355 
vt 2.54958 1.73355 
vt -0.450418 1.73355 
vt -0.250418 1.93355 
vt -0.450418 1.93355 
vt -0.250418 -1.06645 
vt -0.450418 -1.06645 
vt -0.250418 1.93355 
vt -0.450418 1.93355 
vt -0.250418 1.73355 
vt -0.450418 1.73355 

usemtl Part1Mtl

f 101/101/101 102/102/102 103/103/103 
f 103/103/103 102/102/102 104/104/104 
f 105/105/105 106/106/106 107/107/107 
f 107/107/107 106/106/106 108/108/108 
f 109/109/109 110/110/110 111/111/111 
f 111/111/111 110/110/110 112/112/112 
f 113/113/113 114/114/114 115/115/115 
f 115/115/115 114/114/114 116/116/116 
f 117/117/117 118/118/118 119/119/119 
f 119/119/119 118/118/118 120/120/120 
f 121/121/121 122/122/122 123/123/123 
f 123/123/123 122/122/122 124/124/124 

